<?xml version="1.0" encoding="UTF-8" standalone="no"?>
<!-- Generator: Adobe Illustrator 27.5.0, SVG Export Plug-In . SVG Version: 6.00 Build 0)  -->

<svg
   version="1.1"
   id="Calque_1"
   x="0px"
   y="0px"
   viewBox="0 0 1282.7 584.4"
   style="enable-background:new 0 0 1282.7 584.4;"
   xml:space="preserve"
   sodipodi:docname="Logotype-SVG.svg"
   inkscape:version="1.1.2 (0a00cf5339, 2022-02-04)"
   xmlns:inkscape="http://www.inkscape.org/namespaces/inkscape"
   xmlns:sodipodi="http://sodipodi.sourceforge.net/DTD/sodipodi-0.dtd"
   xmlns="http://www.w3.org/2000/svg"
   xmlns:svg="http://www.w3.org/2000/svg"><defs
   id="defs205" /><sodipodi:namedview
   id="namedview203"
   pagecolor="#ffffff"
   bordercolor="#666666"
   borderopacity="1.0"
   inkscape:pageshadow="2"
   inkscape:pageopacity="0.0"
   inkscape:pagecheckerboard="0"
   showgrid="false"
   inkscape:zoom="1.045451"
   inkscape:cx="695.39363"
   inkscape:cy="523.21914"
   inkscape:window-width="1920"
   inkscape:window-height="1012"
   inkscape:window-x="1920"
   inkscape:window-y="0"
   inkscape:window-maximized="1"
   inkscape:current-layer="g200" />
<style
   type="text/css"
   id="style2">
	.st0{fill:url(#SVGID_1_);}
	.st1{fill:url(#SVGID_00000141413916124433329360000012757596043050866332_);}
	.st2{fill:url(#SVGID_00000004541912154028578830000008986697505115794052_);}
	.st3{fill:url(#SVGID_00000034770560027210393560000011584958704467940008_);}
	.st4{fill:url(#SVGID_00000160168163255253684820000007083377742938121884_);}
	.st5{fill:url(#SVGID_00000097495507310755759060000008858567412985605269_);}
	.st6{fill:url(#SVGID_00000097474479298584670350000001031894571723333003_);}
	.st7{fill:url(#SVGID_00000049204696169475024690000009404290350432881804_);}
	.st8{fill:url(#SVGID_00000086676499400299071200000015741041278731460269_);}
	.st9{fill:url(#SVGID_00000148659407903617510600000003424940742811752363_);}
	.st10{fill:url(#SVGID_00000051356573015294151000000012498767696533489059_);}
	.st11{fill:url(#SVGID_00000061442991845167071700000007399595280631894690_);}
	.st12{fill:url(#SVGID_00000070092636089925964330000014780206555224272550_);}
	.st13{opacity:0.5;fill:none;stroke:#6290CB;stroke-width:2.3412;stroke-miterlimit:10;enable-background:new    ;}
	.st14{fill:url(#SVGID_00000031920337365029115660000007655627978770903467_);}
	.st15{fill:#6A70B0;}
</style>
<g
   id="g200">
	
		<linearGradient
   id="SVGID_1_"
   gradientUnits="userSpaceOnUse"
   x1="571.9361"
   y1="232.8063"
   x2="1219.4093"
   y2="223.1526"
   gradientTransform="matrix(1 0 0 -1 0 584.046)">
		<stop
   offset="0"
   style="stop-color:#6290CB"
   id="stop4" />
		<stop
   offset="0.46"
   style="stop-color:#6A70B0"
   id="stop6" />
		<stop
   offset="1"
   style="stop-color:#83207E"
   id="stop8" />
	</linearGradient>
	<path
   class="st0"
   d="M599.3,410.4V294.8h14.5V396h43.4V294.8h14.5V396H715V294.8h14.5v115.6H599.3L599.3,410.4z"
   id="path11" />
	
		<linearGradient
   id="SVGID_00000123430020596860768010000000668697995072744366_"
   gradientUnits="userSpaceOnUse"
   x1="571.9667"
   y1="234.9985"
   x2="1219.4402"
   y2="225.3448"
   gradientTransform="matrix(1 0 0 -1 0 584.046)">
		<stop
   offset="0"
   style="stop-color:#6290CB"
   id="stop13" />
		<stop
   offset="0.46"
   style="stop-color:#6A70B0"
   id="stop15" />
		<stop
   offset="1"
   style="stop-color:#83207E"
   id="stop17" />
	</linearGradient>
	<path
   style="fill:url(#SVGID_00000123430020596860768010000000668697995072744366_);"
   d="M746.4,410.4V396h61.2v-86.7h-61.2v-14.5   h130.1v14.5h-53.6V396h53.6v14.5H746.4z"
   id="path20" />
	
		<linearGradient
   id="SVGID_00000159450975813859197710000007172672361827899797_"
   gradientUnits="userSpaceOnUse"
   x1="571.9974"
   y1="237.1369"
   x2="1219.4707"
   y2="227.4831"
   gradientTransform="matrix(1 0 0 -1 0 584.046)">
		<stop
   offset="0"
   style="stop-color:#6290CB"
   id="stop22" />
		<stop
   offset="0.46"
   style="stop-color:#6A70B0"
   id="stop24" />
		<stop
   offset="1"
   style="stop-color:#83207E"
   id="stop26" />
	</linearGradient>
	<path
   style="fill:url(#SVGID_00000159450975813859197710000007172672361827899797_);"
   d="M893.5,410.4v-7.2l93.9-93.9h-93.9v-14.5   h122.9v7.2L922.4,396h93.9v14.5H893.5z"
   id="path29" />
	
		<linearGradient
   id="SVGID_00000134947566097623439530000008351902426205939863_"
   gradientUnits="userSpaceOnUse"
   x1="573.9946"
   y1="370.7314"
   x2="1221.4679"
   y2="361.0777"
   gradientTransform="matrix(1 0 0 -1 0 584.046)">
		<stop
   offset="0"
   style="stop-color:#6290CB"
   id="stop31" />
		<stop
   offset="0.46"
   style="stop-color:#6A70B0"
   id="stop33" />
		<stop
   offset="1"
   style="stop-color:#83207E"
   id="stop35" />
	</linearGradient>
	<polygon
   style="fill:url(#SVGID_00000134947566097623439530000008351902426205939863_);"
   points="862.4,157.9 862.4,254.2    759.8,158.4 759.2,157.9 746.4,157.9 746.4,275.8 760.5,275.8 760.5,179.5 863.1,275.3 863.7,275.8 876.5,275.8 876.5,157.9  "
   id="polygon38" />
	
		<linearGradient
   id="SVGID_00000140710469513883162280000006851592298817158024_"
   gradientUnits="userSpaceOnUse"
   x1="574.0502"
   y1="374.7216"
   x2="1221.5237"
   y2="365.0678"
   gradientTransform="matrix(1 0 0 -1 0 584.046)">
		<stop
   offset="0"
   style="stop-color:#6290CB"
   id="stop40" />
		<stop
   offset="0.46"
   style="stop-color:#6A70B0"
   id="stop42" />
		<stop
   offset="1"
   style="stop-color:#83207E"
   id="stop44" />
	</linearGradient>
	<path
   style="fill:url(#SVGID_00000140710469513883162280000006851592298817158024_);"
   d="M1114.8,239.3h7.5c4.7,0,9.2-1.1,13.3-3.2   c4.2-2.1,7.8-5.1,10.9-8.8c3-3.7,5.5-8,7.2-12.9c1.8-4.9,2.7-10.2,2.7-15.8c0-5.6-0.9-10.9-2.7-15.8c-1.8-4.9-4.2-9.2-7.2-12.9   c-3-3.7-6.7-6.7-10.9-8.8c-4.2-2.1-8.7-3.2-13.3-3.2h-88.9v15.7h88.9c2.8,0,5.5,0.6,8,1.9c2.5,1.3,4.7,3.1,6.6,5.3   c1.9,2.3,3.4,5,4.5,8c1.1,3,1.6,6.3,1.6,9.7s-0.6,6.7-1.6,9.8c-1.1,3.1-2.6,5.8-4.5,8c-1.9,2.2-4.1,4-6.6,5.4c-2.5,1.3-5.1,2-7.9,2   h-88.9v52.2h13.4v-36.6h45.8l42.5,36.6h22.1L1114.8,239.3L1114.8,239.3z"
   id="path47" />
	
		<linearGradient
   id="SVGID_00000156550629567762564300000002749534878233948085_"
   gradientUnits="userSpaceOnUse"
   x1="574.775"
   y1="423.4431"
   x2="1222.2483"
   y2="413.7956"
   gradientTransform="matrix(1 0 0 -1 0 584.046)">
		<stop
   offset="0"
   style="stop-color:#6290CB"
   id="stop49" />
		<stop
   offset="0.46"
   style="stop-color:#6A70B0"
   id="stop51" />
		<stop
   offset="1"
   style="stop-color:#83207E"
   id="stop53" />
	</linearGradient>
	<polygon
   style="fill:url(#SVGID_00000156550629567762564300000002749534878233948085_);"
   points="907.9,173.5 1001.9,173.5    1016.3,173.5 1016.3,159 893.5,159 893.5,173.5  "
   id="polygon56" />
	
		<linearGradient
   id="SVGID_00000056399895884782078320000010650815750723697546_"
   gradientUnits="userSpaceOnUse"
   x1="573.6444"
   y1="347.5761"
   x2="1221.1178"
   y2="337.9285"
   gradientTransform="matrix(1 0 0 -1 0 584.046)">
		<stop
   offset="0"
   style="stop-color:#6290CB"
   id="stop58" />
		<stop
   offset="0.46"
   style="stop-color:#6A70B0"
   id="stop60" />
		<stop
   offset="1"
   style="stop-color:#83207E"
   id="stop62" />
	</linearGradient>
	<polygon
   style="fill:url(#SVGID_00000056399895884782078320000010650815750723697546_);"
   points="1016.3,224.1 1016.3,209.6    1001.9,209.6 907.9,209.6 893.5,209.6 893.5,274.7 1016.3,274.7 1016.3,260.2 907.9,260.2 907.9,224.1  "
   id="polygon65" />
	
		<linearGradient
   id="SVGID_00000136408955199932980830000000114536660154474415_"
   gradientUnits="userSpaceOnUse"
   x1="572.7841"
   y1="289.8012"
   x2="1220.2574"
   y2="280.1475"
   gradientTransform="matrix(1 0 0 -1 0 584.046)">
		<stop
   offset="0"
   style="stop-color:#6290CB"
   id="stop67" />
		<stop
   offset="0.46"
   style="stop-color:#6A70B0"
   id="stop69" />
		<stop
   offset="1"
   style="stop-color:#83207E"
   id="stop71" />
	</linearGradient>
	<polygon
   style="fill:url(#SVGID_00000136408955199932980830000000114536660154474415_);"
   points="1047.7,309.3 1141.7,309.3    1156.1,309.3 1156.1,294.8 1033.3,294.8 1033.3,309.3  "
   id="polygon74" />
	
		<linearGradient
   id="SVGID_00000020382769342551848370000006140565628799073673_"
   gradientUnits="userSpaceOnUse"
   x1="571.6533"
   y1="213.9294"
   x2="1219.1266"
   y2="204.2818"
   gradientTransform="matrix(1 0 0 -1 0 584.046)">
		<stop
   offset="0"
   style="stop-color:#6290CB"
   id="stop76" />
		<stop
   offset="0.46"
   style="stop-color:#6A70B0"
   id="stop78" />
		<stop
   offset="1"
   style="stop-color:#83207E"
   id="stop80" />
	</linearGradient>
	<polygon
   style="fill:url(#SVGID_00000020382769342551848370000006140565628799073673_);"
   points="1156.1,359.8 1156.1,345.4    1141.7,345.4 1047.7,345.4 1033.3,345.4 1033.3,410.4 1156.1,410.4 1156.1,396 1047.7,396 1047.7,359.8  "
   id="polygon83" />
	
		<linearGradient
   id="SVGID_00000146475673476443386030000007561758197859218063_"
   gradientUnits="userSpaceOnUse"
   x1="574.7136"
   y1="419.1161"
   x2="1222.1868"
   y2="409.4624"
   gradientTransform="matrix(1 0 0 -1 0 584.046)">
		<stop
   offset="0"
   style="stop-color:#6290CB"
   id="stop85" />
		<stop
   offset="0.46"
   style="stop-color:#6A70B0"
   id="stop87" />
		<stop
   offset="1"
   style="stop-color:#83207E"
   id="stop89" />
	</linearGradient>
	<polygon
   style="fill:url(#SVGID_00000146475673476443386030000007561758197859218063_);"
   points="613.8,173.5 707.7,173.5    729.4,173.5 729.4,159 599.3,159 599.3,173.5  "
   id="polygon92" />
	
		<linearGradient
   id="SVGID_00000132075781072985117190000017116378400483203976_"
   gradientUnits="userSpaceOnUse"
   x1="573.5829"
   y1="343.2492"
   x2="1221.0562"
   y2="333.5955"
   gradientTransform="matrix(1 0 0 -1 0 584.046)">
		<stop
   offset="0"
   style="stop-color:#6290CB"
   id="stop94" />
		<stop
   offset="0.46"
   style="stop-color:#6A70B0"
   id="stop96" />
		<stop
   offset="1"
   style="stop-color:#83207E"
   id="stop98" />
	</linearGradient>
	<polygon
   style="fill:url(#SVGID_00000132075781072985117190000017116378400483203976_);"
   points="729.4,224.1 729.4,209.6    707.7,209.6 613.8,209.6 599.3,209.6 599.3,274.7 729.4,274.7 729.4,260.2 613.8,260.2 613.8,224.1  "
   id="polygon101" />
	
		<linearGradient
   id="SVGID_00000145777147591012038980000001078057988158039991_"
   gradientUnits="userSpaceOnUse"
   x1="234.7879"
   y1="276.9268"
   x2="502.8055"
   y2="283.3298"
   gradientTransform="matrix(1 0 0 -1 0 584.046)">
		<stop
   offset="0"
   style="stop-color:#83207E"
   id="stop103" />
		<stop
   offset="0.17"
   style="stop-color:#793F91"
   id="stop105" />
		<stop
   offset="0.39"
   style="stop-color:#6E62A7"
   id="stop107" />
		<stop
   offset="0.51"
   style="stop-color:#6A70B0"
   id="stop109" />
		<stop
   offset="1"
   style="stop-color:#6290CB"
   id="stop111" />
	</linearGradient>
	<path
   style="fill:url(#SVGID_00000145777147591012038980000001078057988158039991_);"
   d="M405.2,299.9c-4.2,0-7.8,2.2-9.9,5.4   h-69.4l9.8-31.5h26.2c2.1,3.3,5.8,5.6,10,5.6c6.5,0,11.8-5.3,11.8-11.8c0-6.5-5.3-11.8-11.8-11.8c-4.1,0-7.7,2.1-9.8,5.3h-98.6   c-2.1-3.3-5.7-5.4-9.9-5.4c-6.5,0-11.8,5.3-11.8,11.8c0,6.5,5.3,11.8,11.8,11.8c4.2,0,7.8-2.2,9.9-5.4h23.9l-23.6,74.9h121.7   c2.1,3.3,5.7,5.4,9.9,5.4c6.5,0,11.8-5.3,11.8-11.8c0-6.5-5.3-11.8-11.8-11.8c-4.2,0-7.8,2.2-9.9,5.4H281.1l19.6-62.2h21.7   L308.7,318h86.6c2.1,3.3,5.7,5.4,9.9,5.4c6.5,0,11.8-5.3,11.8-11.8C417,305.2,411.7,299.9,405.2,299.9L405.2,299.9z"
   id="path114" />
	
		<linearGradient
   id="SVGID_00000153670075184455495390000002353221744526090631_"
   gradientUnits="userSpaceOnUse"
   x1="232.4161"
   y1="376.2744"
   x2="500.4336"
   y2="382.6774"
   gradientTransform="matrix(1 0 0 -1 0 584.046)">
		<stop
   offset="0"
   style="stop-color:#83207E"
   id="stop116" />
		<stop
   offset="0.17"
   style="stop-color:#793F91"
   id="stop118" />
		<stop
   offset="0.39"
   style="stop-color:#6E62A7"
   id="stop120" />
		<stop
   offset="0.51"
   style="stop-color:#6A70B0"
   id="stop122" />
		<stop
   offset="1"
   style="stop-color:#6290CB"
   id="stop124" />
	</linearGradient>
	<path
   style="fill:url(#SVGID_00000153670075184455495390000002353221744526090631_);"
   d="M439.6,175.5c2,3.5,5.8,5.9,10.2,5.9   c6.5,0,11.8-5.3,11.8-11.8s-5.3-11.8-11.8-11.8c-4,0-7.5,2-9.6,5h-118L297,243.3l52.1-0.1h33c2.1,3.3,5.7,5.4,9.9,5.4   c6.5,0,11.8-5.3,11.8-11.8s-5.3-11.8-11.8-11.8c-4.2,0-7.8,2.2-9.9,5.4h-32.9l7.5-23.9h72.7c1.9,3.8,5.9,6.5,10.5,6.5   c6.5,0,11.8-5.3,11.8-11.8c0-6.5-5.3-11.8-11.8-11.8c-3.7,0-7,1.7-9.2,4.4h-83.3l-11.5,36.6l-21.6,0l17.3-55.1L439.6,175.5   L439.6,175.5z"
   id="path127" />
	<path
   class="st13"
   d="M555.8,206.8c21.7,43.7,13.1,103-8.9,145.3c-37.9,72.9-119.6,106.2-197.1,93.5   c-53.4-8.7-103.8-36.2-147.4-67.5c-8.8-6.3-17-12.8-24.5-19.4c-14.4-13.9-34.6-30.5-43.8-48.6c-6.4-12.8-10.2-27.4-7.9-41.7   c3.4-21.2,19.2-38.1,35.4-51.9c22.7-19.3,40-39.5,59.2-62c28.5-33.3,65.2-63.4,108-74.2c61-15.4,119.3,13.8,164,52.9   C515.8,153.2,541.5,178,555.8,206.8L555.8,206.8z"
   id="path129" />
	
		<linearGradient
   id="SVGID_00000175289456384328106800000001098026800911101363_"
   gradientUnits="userSpaceOnUse"
   x1="156.7438"
   y1="321.7904"
   x2="554.5887"
   y2="321.7904"
   gradientTransform="matrix(1 0 0 -1 0 584.046)">
		<stop
   offset="0"
   style="stop-color:#83207E"
   id="stop131" />
		<stop
   offset="0.17"
   style="stop-color:#793F91"
   id="stop133" />
		<stop
   offset="0.39"
   style="stop-color:#6E62A7"
   id="stop135" />
		<stop
   offset="0.51"
   style="stop-color:#6A70B0"
   id="stop137" />
		<stop
   offset="1"
   style="stop-color:#6290CB"
   id="stop139" />
	</linearGradient>
	<path
   style="fill:url(#SVGID_00000175289456384328106800000001098026800911101363_);"
   d="M537.9,200.7   c-15.2-24.2-40.3-44.1-62.5-60c-43.4-31-98.2-52.5-151.7-34.7c-37.5,12.5-68.1,41.4-91,72.6c-15.5,21.1-29.4,40-48.2,58.5   c-13.5,13.2-26.3,29.1-27.6,47.9c-0.9,12.7,3.7,25.2,10.5,36c9.7,15.2,29.2,28.3,43.3,39.4c7.3,5.3,15.2,10.4,23.7,15.3   c41.7,24.3,89.3,44.8,138,48.7c70.7,5.6,141.4-29.2,169.5-95.8C558.1,290,560.9,237.5,537.9,200.7L537.9,200.7z M528.6,286.4   c-13.5,63-69.4,105.3-132,112.1c-43.1,4.7-87.9-5.4-128.3-19.9c-8.2-2.9-15.9-6.1-23.1-9.5c-14.1-7.4-28-16.7-39-28.4   c-7.7-8.3-13.8-18.6-15.1-29.8c-2-16.7,6.6-32.8,16.2-46.6c13.3-19.3,22.3-38.3,32.4-59.3c14.8-31.1,37.1-59,67.7-76.1   c43.7-24.5,89.8-13.7,132.7,6.3c22,10.3,46.8,21,64,39.7C530.3,203.3,536.5,249.8,528.6,286.4L528.6,286.4z"
   id="path142" />
	<path
   class="st15"
   d="M244.4,498.1c0.2,3.8,4.4,5.2,8.1,5.2s7.8-1.1,7.8-5.3c0-4.4-4.6-4.9-8.5-5.3c-6.2-0.6-12.3-2.5-12.3-9.3   s6.1-10.2,12.7-10.2c6.6,0,12.5,2.9,12.7,9.8h-5.3c-0.2-3.6-4.1-4.8-7.4-4.8c-3.1,0-7.1,1.3-7.1,5.1s3.8,4.4,7.7,4.8   c6.9,0.8,13.2,2.1,13.2,9.9c0,7.8-7,10.2-13.3,10.2c-6.6,0.1-13.5-3.1-13.7-10.2L244.4,498.1L244.4,498.1z"
   id="path144" />
	<path
   class="st15"
   d="M287.9,508.2c-9.3,0-17.2-6.4-17.2-17.5s8.1-17.5,17.3-17.5s17.2,6.5,17.2,17.5   C305.2,501.1,298.1,508.2,287.9,508.2L287.9,508.2z M288,503c6.3,0,11.6-4.3,11.6-12.2c0-7.9-5.2-12.2-11.6-12.2   c-6.3,0-11.6,4.4-11.6,12.2S281.6,503,288,503z"
   id="path146" />
	<path
   class="st15"
   d="M317.8,502.6h14.6v5.1h-20.2v-33.8h5.7V502.6L317.8,502.6z"
   id="path148" />
	<path
   class="st15"
   d="M337.1,496.3v-22.5h5.6v22.3c0,4.4,3.3,6.9,7.6,6.9s7.5-2.5,7.5-6.9v-22.3h5.6v22.5c0,7.5-5.9,11.7-13.1,11.7   C343.2,508.1,337.1,503.9,337.1,496.3L337.1,496.3z"
   id="path150" />
	<path
   class="st15"
   d="M368.8,478.8v-5h25.1v5h-9.8v28.9h-5.5v-28.9H368.8z"
   id="path152" />
	<path
   class="st15"
   d="M413.7,503.2v4.5h-16.3v-4.5h5.4v-24.8h-4.9v-4.5h15.5v4.5h-4.9v24.8H413.7L413.7,503.2z"
   id="path154" />
	<path
   class="st15"
   d="M435,508.2c-9.3,0-17.2-6.4-17.2-17.5s8.1-17.5,17.3-17.5s17.2,6.5,17.2,17.5   C452.3,501.1,445.2,508.2,435,508.2L435,508.2z M435.1,503c6.3,0,11.6-4.3,11.6-12.2c0-7.9-5.2-12.2-11.6-12.2s-11.6,4.4-11.6,12.2   S428.8,503,435.1,503z"
   id="path156" />
	<path
   class="st15"
   d="M464.5,484.7l0.4,10.7v12.3h-5.6v-33.9h2l20.5,22.8l-0.4-10.3v-12.3h5.6v33.8h-1.9L464.5,484.7z"
   id="path158" />
	<path
   class="st15"
   d="M521,473.9c10.5,0,16.5,7.9,16.5,16.8s-5.9,17-16.5,17h-12.2v-33.8H521z M520.9,502.6c7,0,11-5.4,11-11.8   s-4.1-11.8-11-11.8h-6.6v23.6L520.9,502.6L520.9,502.6z"
   id="path160" />
	<path
   class="st15"
   d="M565.1,478.8h-14.9v8.9h14.1v5h-14.1v9.9h15.2v5.1h-20.9v-33.8h20.6V478.8L565.1,478.8z"
   id="path162" />
	<path
   class="st15"
   d="M600.8,473.4c6.7,0,13.1,3.1,15.2,10.6h-5.6c-1.9-3.9-5.2-5.5-9.7-5.5c-7.1,0-11.4,5.5-11.4,12.2   c0,7.2,4.4,12.3,11.4,12.3c5.8,0,10-2.3,10.9-8.8h-10.5v-4.8H617c0.1,3.2,0,6.2-1.2,9.2c-2.5,6.4-8.4,9.5-15,9.5   c-9.2,0-17.1-6.5-17.1-17.4C583.6,479.9,591.7,473.4,600.8,473.4L600.8,473.4z"
   id="path164" />
	<path
   class="st15"
   d="M644.2,478.8h-14.9v8.9h14.1v5h-14.1v9.9h15.2v5.1h-20.9v-33.8h20.6V478.8L644.2,478.8z"
   id="path166" />
	<path
   class="st15"
   d="M655.2,498.1c0.2,3.8,4.4,5.2,8.1,5.2c3.7,0,7.8-1.1,7.8-5.3c0-4.4-4.6-4.9-8.5-5.3   c-6.2-0.6-12.3-2.5-12.3-9.3s6.1-10.2,12.7-10.2c6.6,0,12.5,2.9,12.7,9.8h-5.3c-0.2-3.6-4.1-4.8-7.4-4.8c-3.1,0-7.1,1.3-7.1,5.1   s3.8,4.4,7.7,4.8c6.9,0.8,13.2,2.1,13.2,9.9c0,7.8-7,10.2-13.3,10.2c-6.6,0.1-13.5-3.1-13.7-10.2L655.2,498.1L655.2,498.1z"
   id="path168" />
	<path
   class="st15"
   d="M680.1,478.8v-5h25.1v5h-9.8v28.9h-5.5v-28.9H680.1z"
   id="path170" />
	<path
   class="st15"
   d="M725,503.2v4.5h-16.3v-4.5h5.4v-24.8H709v-4.5h15.5v4.5h-4.9v24.8H725L725,503.2z"
   id="path172" />
	<path
   class="st15"
   d="M746.3,508.2c-9.3,0-17.2-6.4-17.2-17.5s8.1-17.5,17.3-17.5c9.2,0,17.2,6.5,17.2,17.5   C763.6,501.1,756.5,508.2,746.3,508.2L746.3,508.2z M746.4,503c6.3,0,11.6-4.3,11.6-12.2c0-7.9-5.2-12.2-11.6-12.2   c-6.3,0-11.6,4.4-11.6,12.2S740,503,746.4,503z"
   id="path174" />
	<path
   class="st15"
   d="M775.8,484.7l0.4,10.7v12.3h-5.6v-33.9h2l20.5,22.8l-0.4-10.3v-12.3h5.6v33.8h-1.9L775.8,484.7z"
   id="path176" />
	<path
   class="st15"
   d="M840.6,478.8h-14.9v8.9h14.1v5h-14.1v9.9h15.2v5.1H820v-33.8h20.6V478.8L840.6,478.8z M827.9,470.4l3.8-7.1   l4.8,1.8v0.5l-4.3,5.3h-4.4L827.9,470.4L827.9,470.4z"
   id="path178" />
	<path
   class="st15"
   d="M853.6,484.7l0.4,10.7v12.3h-5.6v-33.9h2l20.5,22.8l-0.4-10.3v-12.3h5.6v33.8h-1.9L853.6,484.7z"
   id="path180" />
	<path
   class="st15"
   d="m 905.8,478.8 h -14.9 v 8.9 H 905 v 5 h -14.1 v 9.9 H 906 v 5.1 h -20.9 v -33.8 h 20.6 v 4.9 z"
   id="path182"
   sodipodi:nodetypes="cccccccccccccc" />
	<path
   class="st15"
   d="M940.8,506.9v0.8h-5.7l-8.4-11.8h-7.4v11.8h-5.7v-33.8h14c7.3,0,11.7,5,11.7,11c0,4.7-2.8,8.6-7.1,10.2   L940.8,506.9L940.8,506.9z M927.5,491.3c3.7,0,6.3-2.7,6.3-6.3c0-3.7-2.6-6.2-6.3-6.2h-8.4v12.5H927.5z"
   id="path184" />
	<path
   class="st15"
   d="M962.2,473.4c6.7,0,13.1,3.1,15.2,10.6h-5.6c-1.9-3.9-5.2-5.5-9.7-5.5c-7.1,0-11.4,5.5-11.4,12.2   c0,7.2,4.4,12.3,11.4,12.3c5.8,0,10-2.3,10.9-8.8h-10.5v-4.8h15.9c0.1,3.2,0,6.2-1.2,9.2c-2.5,6.4-8.4,9.5-15,9.5   c-9.2,0-17.1-6.5-17.1-17.4C945.1,479.9,953.1,473.4,962.2,473.4L962.2,473.4z"
   id="path186" />
	<path
   class="st15"
   d="M1005.6,478.8h-14.9v8.9h14.1v5h-14.1v9.9h15.2v5.1H985v-33.8h20.6V478.8L1005.6,478.8z M993,470.4l3.8-7.1   l4.8,1.8v0.5l-4.3,5.3H993L993,470.4L993,470.4z"
   id="path188" />
	<path
   class="st15"
   d="M1010.2,478.8v-5h25.1v5h-9.8v28.9h-5.5v-28.9H1010.2z"
   id="path190" />
	<path
   class="st15"
   d="M1055,503.2v4.5h-16.3v-4.5h5.4v-24.8h-4.9v-4.5h15.5v4.5h-4.9v24.8H1055L1055,503.2z"
   id="path192" />
	<path
   class="st15"
   d="M1093.7,508h-5.1l-2-3c-2.9,2.1-6.5,3.1-10.3,3.1c-9.3,0-17-6.8-17-17.4s7.1-17.5,17.3-17.5   c9.1,0,17.2,6.5,17.2,17.5c0,4.4-1.2,8.1-3.5,11l3.4,5.5L1093.7,508L1093.7,508z M1076.5,502.9c6.3,0,11.6-4,11.6-12.2   c0-8.2-5.2-12.2-11.6-12.2c-6.4,0-11.5,4.5-11.5,12.2C1065,498.5,1070.2,502.9,1076.5,502.9L1076.5,502.9z"
   id="path194" />
	<path
   class="st15"
   d="M1100.3,496.3v-22.5h5.6v22.3c0,4.4,3.3,6.9,7.6,6.9c4.3,0,7.5-2.5,7.5-6.9v-22.3h5.6v22.5   c0,7.5-5.9,11.7-13.1,11.7C1106.4,508.1,1100.3,503.9,1100.3,496.3L1100.3,496.3z"
   id="path196" />
	<path
   class="st15"
   d="M1155.9,478.8H1141v8.9h14.1v5H1141v9.9h15.2v5.1h-20.9v-33.8h20.6V478.8L1155.9,478.8z"
   id="path198" />
</g>
</svg>
